# xmcd CD database file
#
# Track frame offsets:
#	150
#	12415
#	26475
#	38787
#	53870
#	68905
#	81820
#	95467
#	110172
#	123612
#	138255
#	151612
#	166057
#	181217
#	192780
#	206160
#	217615
#	230040
#	243617
#	258240
#	270715
#	282110
#
# Disc length: 3950 seconds
#
# Revision: 1
# Processed by: cddbd v1.5.2PL0 Copyright (c) Steve Scherf et al.
# Submitted via: CDex 1.75
#
DISCID=310f6c16
DTITLE=Louis Armstrong - Readers Digest - Cd1 - Le Monde Merveilleux De Louis Armstrong
DYEAR=2000
DGENRE=Jazz
TTITLE0=When The Saints Go Marchin'in
TTITLE1=Where The Blues Where Born In New Orleans
TTITLE2=St Louis Blues
TTITLE3=Georgia On My Mind
TTITLE4=Just A Gigolo
TTITLE5=Swing That Music
TTITLE6=Do You Know What It Means To Miss New Orleans
TTITLE7=You Rascal You (I'll Be Glad When Are Brewin')
TTITLE8=Flat Floot Floogie
TTITLE9=When It's Sleepy Time Down South
TTITLE10=The Blues Are Brewin'
TTITLE11=Never Saw A Better Day
TTITLE12=My One And Only Love
TTITLE13=Shadrack
TTITLE14=Cain and Abel
TTITLE15=Old Man Mose
TTITLE16=Jonah And The Whale
TTITLE17=I'll Get Mine Bye And Bye
TTITLE18=I Hope Gabriel Likes My Music
TTITLE19=Going To Shout All Over God's Heaven
TTITLE20=Bye And Bye
TTITLE21=Nobody Knows The Trouble I've Seen
EXTD=YEAR: 2000
EXTT0=
EXTT1=
EXTT2=
EXTT3=
EXTT4=
EXTT5=
EXTT6=
EXTT7=
EXTT8=
EXTT9=
EXTT10=
EXTT11=
EXTT12=
EXTT13=
EXTT14=
EXTT15=
EXTT16=
EXTT17=
EXTT18=
EXTT19=
EXTT20=
EXTT21=
PLAYORDER=
